<?xml version="1.0" encoding="UTF-8" standalone="no"?>
<!DOCTYPE svg PUBLIC "-//W3C//DTD SVG 1.1//EN" "http://www.w3.org/Graphics/SVG/1.1/DTD/svg11.dtd">
<svg width="100%" height="100%" viewBox="0 0 32 32" version="1.1" xmlns="http://www.w3.org/2000/svg" xmlns:xlink="http://www.w3.org/1999/xlink" xml:space="preserve" xmlns:serif="http://www.serif.com/" style="fill-rule:evenodd;clip-rule:evenodd;stroke-linejoin:round;stroke-miterlimit:2;">
    <g>
        <path d="M32,16C32,7.169 24.831,0 16,0C7.169,0 0,7.169 0,16C0,24.831 7.169,32 16,32C24.831,32 32,24.831 32,16Z" style="fill:rgb(0,17,32);"/>
    </g>
    <g id="Layer1">
        <g transform="matrix(0.0384008,-4.996e-05,4.996e-05,0.0384008,1.96235,5.70661)">
            <rect x="315" y="140" width="105" height="35" style="fill:white;fill-rule:nonzero;"/>
        </g>
        <g transform="matrix(0.0384008,-4.996e-05,4.996e-05,0.0384008,1.96235,5.70661)">
            <path d="M262.5,192.5C262.5,202.164 254.664,210 245,210C235.336,210 227.5,202.164 227.5,192.5C227.5,182.836 235.336,175 245,175C254.664,175 262.5,182.836 262.5,192.5" style="fill:white;fill-rule:nonzero;"/>
        </g>
        <g transform="matrix(0.0384008,-4.996e-05,4.996e-05,0.0384008,1.96235,5.70661)">
            <path d="M583.1,324.8C545.362,312.378 504.635,312.378 466.9,324.8C436.459,334.952 403.545,334.952 373.103,324.8C367.763,323.038 361.904,323.948 357.353,327.249C352.763,330.515 350.029,335.792 350.001,341.425L350.001,481.425C349.994,485.093 351.134,488.671 353.271,491.655C355.408,494.639 358.427,496.874 361.9,498.05C399.611,510.644 440.392,510.644 478.1,498.05C508.541,487.894 541.455,487.894 571.897,498.05C577.237,499.808 583.096,498.897 587.647,495.601C592.237,492.331 594.971,487.058 594.998,481.425L594.998,341.425C595.006,337.757 593.866,334.175 591.729,331.195C589.592,328.21 586.573,325.972 583.1,324.8ZM559.998,458.85C528.959,452.932 496.928,454.979 466.896,464.799C440.47,473.643 412.084,474.854 384.998,468.299L384.998,363.299C416.045,369.245 448.1,367.135 478.1,357.174C504.639,348.76 533.002,347.913 559.998,354.725L559.998,458.85Z" style="fill:white;fill-rule:nonzero;"/>
        </g>
        <g transform="matrix(0.0384008,-4.996e-05,4.996e-05,0.0384008,1.96235,5.70661)">
            <path d="M498.75,411.43C498.75,425.926 486.996,437.68 472.5,437.68C458.004,437.68 446.25,425.926 446.25,411.43C446.25,396.93 458.004,385.18 472.5,385.18C486.996,385.18 498.75,396.93 498.75,411.43" style="fill:white;fill-rule:nonzero;"/>
        </g>
        <g transform="matrix(0.0384008,-4.996e-05,4.996e-05,0.0384008,1.96235,5.70661)">
            <path d="M315,385C293.562,385 272.418,380.027 253.227,370.477C249.231,368.504 244.637,368.133 240.375,369.434C236.117,370.735 232.512,373.61 230.301,377.477L215.949,402.5L186.199,385L205.972,350L205.976,350C207.718,347.004 208.531,343.559 208.312,340.102C208.093,336.645 206.855,333.328 204.749,330.574C194.839,317.992 187.198,303.781 182.175,288.574C180.441,283.27 176.281,279.109 170.976,277.375L139.999,267.399L139.999,224.876L166.249,220.501C169.511,219.923 172.538,218.434 174.988,216.204C177.433,213.973 179.199,211.094 180.074,207.899C185.034,188.68 194.109,170.766 206.676,155.399C209.195,151.969 210.375,147.739 210,143.501C209.031,126.173 210.504,108.794 214.375,91.876C228.934,96.114 242.965,101.981 256.199,109.376C260.601,112.107 265.98,112.747 270.898,111.126C285.187,106.79 300.07,104.724 315,105.001L385,105.001C422.129,105.001 457.738,119.751 483.996,146.005C510.25,172.263 525,207.872 525,245.001C525,249.642 526.844,254.095 530.125,257.376C533.406,260.657 537.859,262.501 542.5,262.501L577.5,262.501C583.754,262.501 589.531,259.165 592.656,253.751C595.781,248.337 595.781,241.665 592.656,236.251C589.531,230.837 583.753,227.501 577.5,227.501L560,227.501C555.648,184.185 535.305,144.044 502.945,114.921C470.586,85.796 428.535,69.78 384.995,69.999L314.995,69.999C299.136,69.976 283.354,72.155 268.097,76.476C248.601,65.906 227.843,57.851 206.32,52.499C202.011,51.507 197.488,52.182 193.656,54.389C189.828,56.596 186.972,60.174 185.671,64.397C178.421,88.936 174.823,114.413 174.995,139.999C164.061,154.546 155.499,170.729 149.62,187.948L119.694,192.499C115.554,193.171 111.792,195.308 109.092,198.519C106.397,201.729 104.94,205.804 104.995,209.999L104.995,279.999C104.987,283.667 106.127,287.245 108.264,290.229C110.401,293.213 113.42,295.447 116.893,296.623L151.893,308.174C156.377,320.467 162.248,332.209 169.393,343.174L155.745,367.498C151.167,375.514 149.94,385.014 152.335,393.928C154.725,402.842 160.546,410.451 168.519,415.1L198.269,432.6C203.589,435.682 209.624,437.311 215.769,437.323C218.847,437.346 221.909,436.936 224.87,436.1C233.902,433.811 241.647,428.018 246.393,419.998L252.87,408.623C272.694,416.229 293.761,420.084 314.995,419.998C321.249,419.998 327.026,416.662 330.151,411.248C333.276,405.834 333.276,399.162 330.151,393.748C327.026,388.334 321.249,384.998 314.995,384.998L315,385Z" style="fill:white;fill-rule:nonzero;"/>
        </g>
    </g>
</svg>
