<?xml version="1.0" encoding="UTF-8" standalone="no"?>
<!DOCTYPE svg PUBLIC "-//W3C//DTD SVG 1.1//EN" "http://www.w3.org/Graphics/SVG/1.1/DTD/svg11.dtd">
<svg width="100%" height="100%" viewBox="0 0 500 500" version="1.1" xmlns="http://www.w3.org/2000/svg" xmlns:xlink="http://www.w3.org/1999/xlink" xml:space="preserve" xmlns:serif="http://www.serif.com/" style="fill-rule:evenodd;clip-rule:evenodd;stroke-linejoin:round;stroke-miterlimit:2;">
    <g transform="matrix(0.312915,0,0,0.312931,-0.600589,-0.933244)">
        <g id="Layer1">
            <rect x="1.919" y="2.982" width="1597.88" height="1597.8" style="fill:white;"/>
            <g transform="matrix(58.4273,0,0,58.4241,97.7428,85.0936)">
                <path d="M11.644,1.59C11.866,1.47 12.134,1.47 12.356,1.59L22.106,6.84C22.348,6.971 22.5,7.225 22.5,7.5C22.5,7.775 22.348,8.029 22.106,8.16L12.356,13.41C12.134,13.53 11.866,13.53 11.644,13.41L1.894,8.16C1.652,8.029 1.5,7.775 1.5,7.5C1.5,7.225 1.652,6.971 1.894,6.84L11.644,1.59Z" style="fill:rgb(109,40,217);fill-rule:nonzero;"/>
            </g>
            <g transform="matrix(58.4273,0,0,58.4241,97.7428,85.0936)">
                <path d="M3.265,10.602L10.933,14.731C11.598,15.089 12.402,15.089 13.067,14.731L20.735,10.601L22.105,11.34C22.347,11.471 22.499,11.725 22.499,12C22.499,12.275 22.347,12.529 22.105,12.66L12.355,17.91C12.134,18.029 11.866,18.029 11.645,17.91L1.895,12.66C1.653,12.529 1.501,12.275 1.501,12C1.501,11.725 1.653,11.471 1.895,11.34L3.265,10.602Z" style="fill:rgb(109,40,217);fill-rule:nonzero;"/>
            </g>
            <g transform="matrix(58.4273,0,0,58.4241,97.7428,85.0936)">
                <path d="M10.933,19.231L3.265,15.101L1.895,15.84C1.653,15.971 1.501,16.225 1.501,16.5C1.501,16.775 1.653,17.029 1.895,17.16L11.645,22.41C11.866,22.53 12.134,22.53 12.355,22.41L22.105,17.16C22.347,17.029 22.499,16.775 22.499,16.5C22.499,16.225 22.347,15.971 22.105,15.84L20.735,15.102L13.067,19.232C12.401,19.59 11.598,19.59 10.933,19.231Z" style="fill:rgb(109,40,217);fill-rule:nonzero;"/>
            </g>
        </g>
    </g>
    <g id="Layer2">
    </g>
</svg>
