<?xml version="1.0" encoding="UTF-8" standalone="no"?>
<!DOCTYPE svg PUBLIC "-//W3C//DTD SVG 1.1//EN" "http://www.w3.org/Graphics/SVG/1.1/DTD/svg11.dtd">
<svg width="100%" height="100%" viewBox="0 0 1973 456" version="1.1" xmlns="http://www.w3.org/2000/svg" xmlns:xlink="http://www.w3.org/1999/xlink" xml:space="preserve" xmlns:serif="http://www.serif.com/" style="fill-rule:evenodd;clip-rule:evenodd;stroke-linejoin:round;stroke-miterlimit:2;">
    <g transform="matrix(1,0,0,1,-263.548,-1.17746e-14)">
        <path d="M1516.51,451.533L1657.85,451.533L1657.85,419.133L1555.41,419.133L1555.41,359.742L1648.09,359.742L1648.09,327.951L1555.41,327.951L1555.41,265.776L1654.72,265.776L1654.72,234.224L1516.51,234.224L1516.51,451.533ZM1443.66,451.533L1486.54,451.533L1438.26,356.653C1458.43,350.144 1482.01,334.235 1482.01,296.718C1482.01,269.157 1468.1,252.4 1448.76,243.04C1435.7,236.796 1420.66,234.224 1405.88,234.224L1323.2,234.224L1323.2,451.546L1362.13,451.546L1362.13,364.62L1401.33,364.62L1443.66,451.533ZM1362.13,333.108L1362.13,261.786L1402.16,261.786C1422.35,261.786 1441.93,270.323 1441.93,296.731C1441.93,324.279 1423.77,333.108 1401.33,333.108L1362.13,333.108ZM1188.26,451.507L1226.1,451.507L1226.1,349.984C1226.1,313.289 1209.59,296.797 1175.76,296.797C1151,296.797 1135.09,310.452 1128.25,324.69L1127.68,324.69L1127.68,227.384L1090.15,227.384L1090.15,451.52L1127.68,451.52L1127.68,362.499C1127.68,339.445 1139.34,324.385 1162.38,324.385C1171.49,324.385 1178.89,327.235 1183.42,333.48C1187.98,340.015 1188.26,349.984 1188.26,360.789L1188.26,451.507ZM1062.55,350.541C1060.85,313.568 1032.98,296.506 996.288,296.506C950.777,296.506 922.924,328.349 922.924,376.127C922.924,425.046 949.093,455.192 995.731,455.192C1032.98,455.192 1061.15,435.85 1063.41,398.319L1027.02,398.319C1026.45,411.669 1019.33,429.023 995.996,429.023C968.687,429.023 961.607,404.007 961.607,375.279C961.607,345.716 971.55,321.827 996.288,321.827C1015.35,321.827 1024.17,334.898 1025.59,350.541L1062.55,350.541ZM860.351,451.507L898.186,451.507L898.186,300.191L860.351,300.191L860.351,451.507ZM860.072,270.337L898.451,270.337L898.451,235.338L860.072,235.338L860.072,270.337ZM787.835,451.507L825.67,451.507L825.67,349.984C825.67,313.289 809.165,296.797 775.32,296.797C750.291,296.797 734.091,310.174 726.402,325.512L725.832,325.512L725.832,300.204L689.72,300.204L689.72,451.52L727.25,451.52L727.25,362.499C727.25,339.445 738.917,324.385 761.957,324.385C771.052,324.385 778.462,327.235 782.996,333.48C787.556,340.015 787.835,349.984 787.835,360.789L787.835,451.507ZM556.036,300.204L518.519,300.204L518.519,403.158C518.519,438.7 535.581,454.914 569.426,454.914C593.872,454.914 609.237,441.524 616.621,426.477L617.191,426.477L617.191,451.507L653.595,451.507L653.595,300.204L615.759,300.204L615.759,382.663C615.759,411.696 604.69,427.339 581.954,427.339C572.541,427.339 565.422,424.489 561.167,417.953C556.62,411.696 556.036,401.435 556.036,390.63L556.036,300.204ZM483.348,451.533L483.348,228.365L424.302,228.365L409.997,268.613L383.404,344.761C379.923,354.858 376.824,365.082 374.111,375.411L373.262,375.411C373.262,375.411 370.081,363.48 363.757,344.788L336.859,268.414L322.78,228.378L263.548,228.378L263.548,451.52L299.341,451.52L299.341,268.454L300.19,268.454C300.19,268.454 308.939,297.01 309.006,297.089L354.225,428.002L389.489,428.002L436.511,291.15C437.705,287.571 443.71,268.176 443.71,268.176L444.558,268.176L444.558,451.533L483.348,451.533ZM1784.99,419.093L1784.99,451.48L2019.37,451.48L2049.46,419.093L1784.99,419.093ZM1784.99,234.171L1784.99,265.339L2190.65,265.339L2219.58,234.171L1784.99,234.171ZM2184.62,170.047L2150.64,138.602L1784.99,138.602L1784.99,170.047L2184.62,170.047ZM1784.99,327.978L1784.99,359.755L2103.79,359.755L2133.21,327.978L1784.99,327.978ZM2084.95,77.593L2050.3,45.511L1784.99,45.511L1784.99,77.593L2084.95,77.593ZM2236.45,405.929L2236.45,373.847L1935.78,373.847L1970.41,405.929L2236.45,405.929ZM2236.45,91.725L1917.72,91.725L1888.22,123.489L2236.44,123.489L2236.45,91.725ZM2236.45,312.891L2236.45,281.433L1836.22,281.433L1870.26,312.891L2236.45,312.891ZM1830.88,186.128L1802.11,217.282L2236.44,217.282L2236.44,186.128L1830.88,186.128ZM1972.13,32.36L2236.44,32.36L2236.44,0L2002.07,0L1972.13,32.36Z" style="fill:white;fill-rule:nonzero;"/>
    </g>
</svg>
