<?xml version="1.0" encoding="UTF-8" standalone="no"?>
<!DOCTYPE svg PUBLIC "-//W3C//DTD SVG 1.1//EN" "http://www.w3.org/Graphics/SVG/1.1/DTD/svg11.dtd">
<svg width="100%" height="100%" viewBox="0 0 24 24" version="1.1" xmlns="http://www.w3.org/2000/svg" xmlns:xlink="http://www.w3.org/1999/xlink" xml:space="preserve" xmlns:serif="http://www.serif.com/" style="fill-rule:evenodd;clip-rule:evenodd;stroke-linejoin:round;stroke-miterlimit:2;">
    <path d="M15.97,2.47C16.261,2.179 16.739,2.179 17.03,2.47L21.53,6.97C21.821,7.261 21.821,7.739 21.53,8.03L17.03,12.53C16.888,12.682 16.689,12.769 16.481,12.769C16.07,12.769 15.731,12.43 15.731,12.019C15.731,11.811 15.818,11.612 15.97,11.47L19.19,8.25L7.5,8.25C7.089,8.25 6.75,7.911 6.75,7.5C6.75,7.089 7.089,6.75 7.5,6.75L19.19,6.75L15.97,3.53C15.679,3.239 15.679,2.761 15.97,2.47ZM8.03,11.47C8.321,11.761 8.321,12.239 8.03,12.53L4.81,15.75L16.5,15.75C16.911,15.75 17.25,16.089 17.25,16.5C17.25,16.911 16.911,17.25 16.5,17.25L4.81,17.25L8.03,20.47C8.182,20.612 8.269,20.811 8.269,21.019C8.269,21.43 7.93,21.769 7.519,21.769C7.311,21.769 7.112,21.682 6.97,21.53L2.47,17.03C2.179,16.739 2.179,16.261 2.47,15.97L6.97,11.47C7.261,11.179 7.739,11.179 8.03,11.47Z" style="fill:rgb(109,40,217);"/>
</svg>
