<?xml version="1.0" encoding="UTF-8" standalone="no"?>
<!DOCTYPE svg PUBLIC "-//W3C//DTD SVG 1.1//EN" "http://www.w3.org/Graphics/SVG/1.1/DTD/svg11.dtd">
<svg width="100%" height="100%" viewBox="0 0 15 16" version="1.1" xmlns="http://www.w3.org/2000/svg" xmlns:xlink="http://www.w3.org/1999/xlink" xml:space="preserve" xmlns:serif="http://www.serif.com/" style="fill-rule:evenodd;clip-rule:evenodd;stroke-linejoin:round;stroke-miterlimit:2;">
    <g transform="matrix(1,0,0,1,-61.7869,-4.59225)">
        <g id="Group_274" transform="matrix(1,0,0,1,-2952.85,-32.4485)">
            <path id="Path_95" d="M3024.43,50.495C3025.03,50.38 3025.59,50.097 3026.05,49.678C3026.7,49.063 3026.79,48.236 3026.79,47.197L3026.79,42.56C3026.79,41.521 3026.7,40.693 3026.05,40.078C3025.59,39.66 3025.03,39.376 3024.43,39.261L3024.43,37.041C3025.4,37.155 3026.32,37.574 3027.05,38.239C3028.06,39.094 3028.67,40.335 3028.73,41.661L3028.73,47.997C3028.67,49.322 3028.06,50.564 3027.05,51.418C3026.32,52.083 3025.4,52.503 3024.43,52.616L3024.43,50.495Z" style="fill:url(#_Linear1);fill-rule:nonzero;"/>
            <path id="Path_96" d="M3016.32,38.239C3017.05,37.574 3017.97,37.155 3018.94,37.041L3018.94,39.26C3018.34,39.376 3017.78,39.659 3017.32,40.078C3016.67,40.692 3016.58,41.514 3016.58,42.543L3016.58,47.196C3016.58,48.234 3016.67,49.063 3017.32,49.677C3017.78,50.096 3018.34,50.379 3018.94,50.494L3018.94,52.616C3017.97,52.502 3017.05,52.082 3016.32,51.417C3015.31,50.563 3014.7,49.321 3014.64,47.996L3014.64,41.637C3014.7,40.319 3015.31,39.086 3016.32,38.239Z" style="fill:url(#_Linear2);fill-rule:nonzero;"/>
            <g id="Group_149">
            </g>
            <g id="Group_150">
                <path id="Path_103" d="M3023.62,43.153L3024.34,41.996L3022.83,41.201L3022.2,42.405C3022.11,42.576 3021.93,42.683 3021.74,42.683C3021.54,42.683 3021.36,42.576 3021.27,42.405L3020.64,41.201L3019.15,41.989L3020.18,43.65L3023.62,43.153Z" style="fill:url(#_Linear3);fill-rule:nonzero;"/>
                <path id="Path_104" d="M3025.49,43.992L3018.08,44.057L3018.08,45.554L3020.4,45.546L3019.15,47.558L3020.64,48.345L3021.27,47.142C3021.37,46.971 3021.54,46.863 3021.74,46.863C3021.93,46.863 3022.11,46.971 3022.2,47.142L3022.84,48.345L3024.34,47.55L3023.33,45.922L3021.38,45.546L3025.49,45.532L3025.49,43.992Z" style="fill:url(#_Linear4);fill-rule:nonzero;"/>
            </g>
        </g>
    </g>
    <defs>
        <linearGradient id="_Linear1" x1="0" y1="0" x2="1" y2="0" gradientUnits="userSpaceOnUse" gradientTransform="matrix(9.8567,-15.295,15.295,9.8567,3019.23,54.5008)"><stop offset="0" style="stop-color:rgb(0,129,179);stop-opacity:1"/><stop offset="0.42" style="stop-color:rgb(0,255,255);stop-opacity:1"/><stop offset="1" style="stop-color:rgb(111,239,45);stop-opacity:1"/><stop offset="1" style="stop-color:rgb(111,239,45);stop-opacity:1"/></linearGradient>
        <linearGradient id="_Linear2" x1="0" y1="0" x2="1" y2="0" gradientUnits="userSpaceOnUse" gradientTransform="matrix(9.8567,-15.2944,15.2944,9.8567,3013.89,51.058)"><stop offset="0" style="stop-color:rgb(0,129,179);stop-opacity:1"/><stop offset="0.42" style="stop-color:rgb(0,255,255);stop-opacity:1"/><stop offset="1" style="stop-color:rgb(111,239,45);stop-opacity:1"/><stop offset="1" style="stop-color:rgb(111,239,45);stop-opacity:1"/></linearGradient>
        <linearGradient id="_Linear3" x1="0" y1="0" x2="1" y2="0" gradientUnits="userSpaceOnUse" gradientTransform="matrix(9.85252,-15.2984,15.2984,9.85252,3015.32,51.9792)"><stop offset="0" style="stop-color:rgb(0,129,179);stop-opacity:1"/><stop offset="0.42" style="stop-color:rgb(0,255,255);stop-opacity:1"/><stop offset="1" style="stop-color:rgb(111,239,45);stop-opacity:1"/><stop offset="1" style="stop-color:rgb(111,239,45);stop-opacity:1"/></linearGradient>
        <linearGradient id="_Linear4" x1="0" y1="0" x2="1" y2="0" gradientUnits="userSpaceOnUse" gradientTransform="matrix(9.85526,-15.3108,15.3108,9.85526,3016.67,52.8577)"><stop offset="0" style="stop-color:rgb(0,129,179);stop-opacity:1"/><stop offset="0.42" style="stop-color:rgb(0,255,255);stop-opacity:1"/><stop offset="1" style="stop-color:rgb(111,239,45);stop-opacity:1"/><stop offset="1" style="stop-color:rgb(111,239,45);stop-opacity:1"/></linearGradient>
    </defs>
</svg>
