<svg role="img" width="108.43" height="24.78" aria-hidden="true" viewBox="0 0 167.1 38.182" xmlns="http://www.w3.org/2000/svg" class="logo_logo__E4ClS" xmlns:xlink="http://www.w3.org/1999/xlink"><defs><linearGradient x1="-1.205" y1="1.121" x2="1.083" y2="0.139" id="linear-gradientundefined" gradientUnits="objectBoundingBox"><stop offset="0" stop-color="#0081b3"></stop><stop offset="0.417" stop-color="aqua"></stop><stop offset="0.995" stop-color="#6fef2d"></stop></linearGradient><linearGradient x1="-0.174" y1="0.9" x2="2.114" y2="-0.082" id="linear-gradient-2undefined" xlink:href="#linear-gradientundefined"></linearGradient><linearGradient x1="-0.736" y1="4.401" x2="1.161" y2="-1.846" id="linear-gradient-3undefined" xlink:href="#linear-gradientundefined"></linearGradient><linearGradient x1="-0.19" y1="2.037" x2="1.139" y2="-1.481" id="linear-gradient-4undefined" xlink:href="#linear-gradientundefined"></linearGradient></defs><g id="Group_274" data-name="Group 274" transform="translate(-4550.596 -50.006)"><path id="Path_95" data-name="Path 95" d="M4660.9,77.814a5.083,5.083,0,0,0,2.5-1.259c1-.947,1.146-2.222,1.146-3.824V65.585c0-1.6-.143-2.877-1.146-3.824a5.093,5.093,0,0,0-2.5-1.26V57.08a7.212,7.212,0,0,1,4.039,1.847,7.319,7.319,0,0,1,2.6,5.273v9.764a7.317,7.317,0,0,1-2.6,5.272,7.205,7.205,0,0,1-4.039,1.847Z" fill="url(#linear-gradientundefined)"></path><path id="Path_96" data-name="Path 96" d="M4648.415,58.927a7.22,7.22,0,0,1,4.039-1.847V60.5a5.1,5.1,0,0,0-2.5,1.26c-1,.947-1.147,2.214-1.147,3.8v7.17c0,1.6.144,2.877,1.147,3.824a5.1,5.1,0,0,0,2.5,1.259v3.269a7.213,7.213,0,0,1-4.039-1.847,7.317,7.317,0,0,1-2.6-5.272v-9.8A7.287,7.287,0,0,1,4648.415,58.927Z" fill="url(#linear-gradient-2undefined)"></path><g id="Group_149" data-name="Group 149"><g id="Group_148" data-name="Group 148"><g id="Group_147" data-name="Group 147"><path id="Path_97" data-name="Path 97" d="M4558.209,81.055a7.126,7.126,0,0,1-5.521-2.287,8.633,8.633,0,0,1-2.092-6.063V65.53a8.709,8.709,0,0,1,2.092-6.084,7.093,7.093,0,0,1,5.521-2.307,7.662,7.662,0,0,1,3.869.943,5.607,5.607,0,0,1,2.4,2.623h.125v-10.7h2.092V80.635h-2.092V77.488h-.125a5.6,5.6,0,0,1-2.4,2.622A7.663,7.663,0,0,1,4558.209,81.055Zm.418-1.805a5.634,5.634,0,0,0,4.413-1.741,6.917,6.917,0,0,0,1.568-4.8V65.53a6.987,6.987,0,0,0-1.568-4.847,6.413,6.413,0,0,0-8.784,0,6.992,6.992,0,0,0-1.568,4.847v7.175a6.921,6.921,0,0,0,1.568,4.8A5.58,5.58,0,0,0,4558.627,79.25Z" fill="#fff"></path><path id="Path_98" data-name="Path 98" d="M4581.09,81.055a7.915,7.915,0,0,1-6.023-2.287,8.495,8.495,0,0,1-2.175-6.1V65.53a8.45,8.45,0,0,1,2.2-6.106,7.933,7.933,0,0,1,6-2.285,7.8,7.8,0,0,1,5.96,2.285,8.547,8.547,0,0,1,2.154,6.106v3.986h-14.221v3.147a6.869,6.869,0,0,0,1.59,4.783,5.767,5.767,0,0,0,4.517,1.762,6.321,6.321,0,0,0,3.869-1.132,5.8,5.8,0,0,0,2.112-3.106h2.091a7.486,7.486,0,0,1-2.739,4.448A8.457,8.457,0,0,1,4581.09,81.055Zm-6.107-13.343h12.13V65.53a6.934,6.934,0,0,0-1.569-4.784,5.648,5.648,0,0,0-4.454-1.762,5.8,5.8,0,0,0-4.517,1.742,6.854,6.854,0,0,0-1.59,4.8Z" fill="#fff"></path><path id="Path_99" data-name="Path 99" d="M4604.065,81.013a12.241,12.241,0,0,1-4.643-.818,7.052,7.052,0,0,1-3.116-2.329A5.865,5.865,0,0,1,4595.2,74.3h5.27a2.1,2.1,0,0,0,.983,1.867,4.753,4.753,0,0,0,2.656.65h1.8a4.908,4.908,0,0,0,2.927-.712,2.318,2.318,0,0,0,.962-1.972q0-2.393-3.554-2.937l-3.221-.42q-7.236-1.049-7.236-6.923a5.907,5.907,0,0,1,2.2-4.973q2.2-1.7,6.378-1.7h1.59a10.309,10.309,0,0,1,6.252,1.74,5.444,5.444,0,0,1,2.364,4.594h-5.271a1.774,1.774,0,0,0-.878-1.572,4.627,4.627,0,0,0-2.509-.567h-1.589q-3.431,0-3.43,2.476,0,2.14,3.053,2.6l3.262.5a10.733,10.733,0,0,1,5.793,2.267A6.116,6.116,0,0,1,4614.9,74a6.268,6.268,0,0,1-2.279,5.161q-2.28,1.847-6.713,1.847Z" fill="#fff"></path><path id="Path_100" data-name="Path 100" d="M4630.163,81.055a11.2,11.2,0,0,1-5.124-1.112,8.181,8.181,0,0,1-3.409-3.147,9.216,9.216,0,0,1-1.212-4.8V66.2a9.22,9.22,0,0,1,1.212-4.8,8.176,8.176,0,0,1,3.409-3.145,11.2,11.2,0,0,1,5.124-1.112,10.244,10.244,0,0,1,6.943,2.244,8.03,8.03,0,0,1,2.719,6.1h-5.1a3.72,3.72,0,0,0-1.359-2.789,4.97,4.97,0,0,0-3.2-.987,4.6,4.6,0,0,0-3.3,1.154,4.33,4.33,0,0,0-1.214,3.294v5.833a4.4,4.4,0,0,0,1.214,3.314,4.547,4.547,0,0,0,3.3,1.175,4.945,4.945,0,0,0,3.22-.986,3.749,3.749,0,0,0,1.338-2.79h5.1a8.027,8.027,0,0,1-2.719,6.1A10.235,10.235,0,0,1,4630.163,81.055Z" fill="#fff"></path><path id="Path_101" data-name="Path 101" d="M4673.655,88.188V57.557h5.1v4.154h.084a6.177,6.177,0,0,1,2.238-3.377,6.512,6.512,0,0,1,3.994-1.195,6.869,6.869,0,0,1,5.458,2.39,9.471,9.471,0,0,1,2.071,6.42V72.2a9.534,9.534,0,0,1-2.071,6.461,6.871,6.871,0,0,1-5.458,2.392,6.528,6.528,0,0,1-3.973-1.2,6.131,6.131,0,0,1-2.259-3.377h-.084l.126,5.244v6.463Zm9.494-11.666a4.082,4.082,0,0,0,3.116-1.173,4.714,4.714,0,0,0,1.108-3.357V66.2a4.706,4.706,0,0,0-1.108-3.356,4.685,4.685,0,0,0-6.253.042,4.865,4.865,0,0,0-1.129,3.44v5.538a4.866,4.866,0,0,0,1.129,3.441A4.066,4.066,0,0,0,4683.149,76.522Z" fill="#fff"></path><path id="Path_102" data-name="Path 102" d="M4708.118,81.055a10.9,10.9,0,0,1-5.1-1.134,8.2,8.2,0,0,1-3.367-3.167,9.246,9.246,0,0,1-1.192-4.762V66.2a9.242,9.242,0,0,1,1.192-4.761,8.2,8.2,0,0,1,3.367-3.169,10.9,10.9,0,0,1,5.1-1.132,10.682,10.682,0,0,1,5.04,1.132,8.227,8.227,0,0,1,3.346,3.169A9.252,9.252,0,0,1,4717.7,66.2v4.154h-14.179v1.637q0,4.908,4.643,4.909,3.6,0,4.224-2.392h5.145a7.335,7.335,0,0,1-3.158,4.762A10.7,10.7,0,0,1,4708.118,81.055Zm-4.6-14.854v.881l9.118-.041v-.882a5.376,5.376,0,0,0-1.129-3.671,4.282,4.282,0,0,0-3.388-1.28,4.37,4.37,0,0,0-3.451,1.3A5.4,5.4,0,0,0,4703.517,66.2Z" fill="#fff"></path></g></g></g><g id="Group_150" data-name="Group 150"><path id="Path_103" data-name="Path 103" fill="url(#linear-gradient-3undefined)" d="M4659.656,66.5l1.113-1.783-2.321-1.225-.978,1.854a.808.808,0,0,1-1.427,0l-.978-1.854-2.3,1.213,1.6,2.561Z"></path><path id="Path_104" data-name="Path 104" fill="url(#linear-gradient-4undefined)" d="M4662.543,67.793l-11.425.1V70.2l3.58-.012-1.931,3.1,2.3,1.212.978-1.853a.807.807,0,0,1,1.427,0l.978,1.853,2.321-1.224-1.565-2.509-3-.58,6.34-.021Z"></path></g></g></svg>
