<?xml version="1.0" encoding="UTF-8" standalone="no"?>
<!DOCTYPE svg PUBLIC "-//W3C//DTD SVG 1.1//EN" "http://www.w3.org/Graphics/SVG/1.1/DTD/svg11.dtd">
<svg width="100%" height="100%" viewBox="0 0 92 81" version="1.1" xmlns="http://www.w3.org/2000/svg" xmlns:xlink="http://www.w3.org/1999/xlink" xml:space="preserve" xmlns:serif="http://www.serif.com/" style="fill-rule:evenodd;clip-rule:evenodd;stroke-linejoin:round;stroke-miterlimit:2;">
    <path d="M55.689,9.094L69.097,0.312C69.468,0.109 69.905,0 70.325,0C71.17,0 71.948,0.441 71.984,1.443L71.984,16.971C71.984,19.033 70.525,21.563 68.74,22.594L66.656,23.798C65.993,23.386 65.221,23.135 64.384,23.135C62.003,23.135 60.072,25.07 60.072,27.451C60.072,27.477 60.076,27.502 60.08,27.526L60.08,27.526C60.083,27.548 60.086,27.569 60.087,27.591L48.787,34.117C47.894,34.63 46.72,34.891 45.542,34.891C44.366,34.891 43.192,34.63 42.298,34.117L31.064,27.63C31.065,27.6 31.069,27.573 31.073,27.545C31.077,27.514 31.081,27.484 31.081,27.451C31.081,25.07 29.15,23.135 26.77,23.135C25.92,23.135 25.133,23.392 24.464,23.817L22.342,22.594C20.559,21.563 19.103,19.033 19.103,16.971L19.103,1.443C19.154,-0.055 20.868,-0.3 21.987,0.312L35.397,9.094C36.052,9.819 36.464,10.435 36.464,12.379L36.464,17.794C36.466,17.875 36.474,17.982 36.482,18.095L36.49,18.196C36.487,18.23 36.482,18.263 36.478,18.296L36.478,18.296C36.471,18.345 36.464,18.394 36.464,18.446C36.464,23.462 40.528,27.53 45.542,27.53C50.557,27.53 54.621,23.462 54.621,18.446C54.621,18.401 54.615,18.357 54.608,18.314L54.608,18.314C54.603,18.275 54.597,18.236 54.596,18.196C54.609,18.046 54.619,17.899 54.621,17.794L54.621,12.379C54.621,10.435 55.033,9.819 55.689,9.094ZM68.681,27.294L70.553,26.216C71.443,25.702 72.612,25.446 73.781,25.446C74.96,25.446 76.139,25.706 77.035,26.223L90.458,34.007C91.726,34.806 91.08,36.416 89.99,37.078L75.675,44.284C74.721,44.491 73.981,44.536 72.302,43.561L67.621,40.846C67.528,40.796 67.399,40.733 67.259,40.669C67.228,40.648 67.199,40.626 67.171,40.604C67.135,40.575 67.1,40.547 67.06,40.523C62.719,38.007 57.163,39.485 54.65,43.827C52.135,48.169 53.614,53.731 57.956,56.25C57.992,56.269 58.029,56.284 58.067,56.299L58.067,56.299C58.105,56.314 58.143,56.329 58.181,56.349C58.307,56.436 58.428,56.519 58.519,56.576L63.196,59.292C64.876,60.264 65.208,60.927 65.502,61.859L66.372,77.873C66.34,79.153 65.267,80.509 63.949,79.809L50.525,72.019C48.743,70.988 47.305,68.458 47.314,66.396L47.314,64.716C48.827,64.045 49.888,62.535 49.888,60.772C49.888,59.008 48.827,57.496 47.314,56.827L47.314,43.336C47.314,42.303 47.7,41.16 48.289,40.139C48.88,39.123 49.693,38.233 50.583,37.719L62.086,31.091C62.753,31.512 63.538,31.767 64.384,31.767C66.766,31.767 68.695,29.833 68.695,27.451C68.695,27.423 68.691,27.396 68.688,27.369L68.688,27.369C68.685,27.344 68.682,27.319 68.681,27.294ZM14.122,26.223L0.697,34.007C-0.57,34.806 0.075,36.416 1.164,37.078L15.48,44.284C16.435,44.491 17.173,44.536 18.854,43.561L23.535,40.846C23.628,40.796 23.757,40.733 23.895,40.669C23.925,40.649 23.952,40.628 23.978,40.607L23.979,40.607L23.979,40.607C24.017,40.577 24.055,40.548 24.098,40.523C28.437,38.007 33.994,39.485 36.507,43.827C39.019,48.169 37.541,53.731 33.2,56.25C33.165,56.269 33.128,56.283 33.091,56.298L33.091,56.298C33.053,56.313 33.014,56.328 32.976,56.349C32.852,56.436 32.728,56.519 32.636,56.576L27.959,59.292C26.279,60.264 25.949,60.927 25.654,61.859L24.784,77.873C24.817,79.153 25.888,80.509 27.206,79.809L40.634,72.019C42.414,70.988 43.852,68.458 43.841,66.396L43.841,64.716C42.328,64.045 41.266,62.535 41.266,60.772C41.266,59.008 42.328,57.496 43.841,56.827L43.841,43.336C43.841,42.303 43.456,41.16 42.867,40.139C42.275,39.123 41.465,38.233 40.572,37.719L29.066,31.091C28.401,31.512 27.618,31.767 26.77,31.767C24.389,31.767 22.459,29.833 22.459,27.451C22.459,27.424 22.463,27.398 22.467,27.372C22.471,27.346 22.474,27.32 22.474,27.294L20.604,26.216C19.714,25.702 18.543,25.446 17.373,25.446C16.194,25.446 15.015,25.706 14.122,26.223ZM64.384,29.456C63.279,29.456 62.382,28.558 62.382,27.451C62.382,26.346 63.279,25.446 64.384,25.446C65.491,25.446 66.387,26.346 66.387,27.451C66.387,28.558 65.491,29.456 64.384,29.456ZM24.767,27.451C24.767,28.558 25.664,29.456 26.77,29.456C27.877,29.456 28.774,28.558 28.774,27.451C28.774,26.346 27.877,25.446 26.77,25.446C25.664,25.446 24.767,26.346 24.767,27.451ZM43.575,60.772C43.575,60.423 43.686,60.113 43.841,59.828C44.182,59.204 44.818,58.767 45.578,58.767C46.337,58.767 46.974,59.204 47.314,59.828C47.469,60.113 47.581,60.423 47.581,60.772C47.581,61.118 47.469,61.431 47.314,61.715C46.974,62.339 46.337,62.777 45.578,62.777C44.818,62.777 44.182,62.339 43.841,61.715C43.686,61.431 43.575,61.118 43.575,60.772Z" style="fill:url(#_Linear1);"/>
    <defs>
        <linearGradient id="_Linear1" x1="0" y1="0" x2="1" y2="0" gradientUnits="userSpaceOnUse" gradientTransform="matrix(51.8588,30.734,-30.734,51.8588,15.7425,20.9524)"><stop offset="0" style="stop-color:rgb(255,1,1);stop-opacity:1"/><stop offset="1" style="stop-color:rgb(149,0,0);stop-opacity:1"/></linearGradient>
    </defs>
</svg>
