<svg width="335" height="80" viewBox="0 0 335 80" fill="none" xmlns="http://www.w3.org/2000/svg">
<path fill-rule="evenodd" clip-rule="evenodd" d="M55.6892 9.09415L69.0969 0.311954C69.4684 0.109274 69.9051 0 70.325 0C71.1702 0 71.9476 0.441483 71.9837 1.44254V16.9713C71.9837 19.0334 70.5249 21.5625 68.7403 22.5935L66.6555 23.7981C65.9934 23.3857 65.2205 23.1354 64.3841 23.1354C62.0026 23.1354 60.0719 25.0697 60.0719 27.4507C60.0719 27.4768 60.0757 27.5015 60.0795 27.5262L60.0795 27.5263C60.0828 27.5476 60.086 27.5688 60.0868 27.5909L48.7869 34.1171C47.8942 34.63 46.7197 34.8908 45.5417 34.8908C44.3664 34.8908 43.1919 34.63 42.2983 34.1171L31.0644 27.6296C31.0652 27.6002 31.069 27.5726 31.0728 27.5452C31.077 27.5144 31.0811 27.4838 31.0811 27.4507C31.0811 25.0697 29.1504 23.1354 26.7698 23.1354C25.9202 23.1354 25.1332 23.3919 24.464 23.8166L22.3423 22.5935C20.5586 21.5625 19.1033 19.0334 19.1033 16.9713V1.44254C19.1544 -0.0546412 20.8676 -0.300491 21.9866 0.311954L35.3969 9.09415C36.0519 9.81851 36.4639 10.4354 36.4639 12.3793V17.7935C36.466 17.8752 36.4738 17.9817 36.4821 18.095L36.4895 18.1962C36.487 18.23 36.4823 18.2631 36.4777 18.2963L36.4776 18.2964C36.4708 18.3452 36.4639 18.3942 36.4639 18.4456C36.4639 23.4624 40.5278 27.5301 45.5417 27.5301C50.5565 27.5301 54.6213 23.4624 54.6213 18.4456C54.6213 18.4005 54.6148 18.3573 54.6084 18.3144V18.3143V18.3143L54.6084 18.3143C54.6025 18.2751 54.5966 18.2361 54.5958 18.1962C54.609 18.0464 54.6187 17.8992 54.6213 17.7935V12.3793C54.6213 10.4354 55.0325 9.81851 55.6892 9.09415ZM68.6814 27.294L70.5531 26.2163C71.4432 25.7017 72.6115 25.4461 73.7815 25.4461C74.9604 25.4461 76.1392 25.7061 77.0346 26.2234L90.4581 34.0071C91.7259 34.8064 91.0797 36.4155 89.9897 37.0782L75.6753 44.2839C74.7209 44.491 73.9814 44.5359 72.3016 43.5613L67.6205 40.8463C67.528 40.796 67.3986 40.7326 67.2587 40.6691C67.2277 40.6481 67.1993 40.6257 67.1714 40.6036C67.1351 40.5749 67.0995 40.5468 67.0597 40.5228C62.7193 38.007 57.1631 39.4848 54.6495 43.8265C52.1351 48.1692 53.6142 53.7305 57.9563 56.2499C57.992 56.2688 58.0291 56.2836 58.0668 56.2986L58.0669 56.2986C58.1046 56.3136 58.143 56.3288 58.1808 56.3486C58.3067 56.4358 58.4282 56.5187 58.5189 56.576L63.1956 59.2919C64.8763 60.2638 65.2082 60.9274 65.5022 61.8588L66.3721 77.8732C66.3404 79.1527 65.2672 80.5089 63.9492 79.8092L50.5249 72.0193C48.7429 70.9882 47.3052 68.4583 47.314 66.3962V64.7157C48.8274 64.0451 49.8883 62.5347 49.8883 60.7723C49.8883 59.0081 48.8274 57.4959 47.314 56.8271V43.3357C47.314 42.3029 47.6997 41.16 48.2886 40.1386C48.8803 39.1226 49.6929 38.2334 50.583 37.7188L62.0863 31.0912C62.7528 31.5124 63.5381 31.7671 64.3841 31.7671C66.7656 31.7671 68.6946 29.8328 68.6946 27.4509C68.6946 27.4234 68.6912 27.3961 68.6879 27.3689L68.6879 27.3688C68.6848 27.3438 68.6818 27.3189 68.6814 27.294ZM14.1221 26.2234L0.69683 34.0071C-0.570068 34.8064 0.075268 36.4155 1.16432 37.0782L15.4797 44.2839C16.4349 44.491 17.1727 44.5359 18.8542 43.5613L23.5353 40.8463C23.6278 40.796 23.7572 40.7326 23.8954 40.6691C23.9246 40.6493 23.9517 40.6282 23.9784 40.6073L23.9785 40.6073L23.9785 40.6072C24.017 40.5773 24.0548 40.5478 24.0979 40.5228C28.4374 38.007 33.9936 39.4848 36.5072 43.8265C39.0189 48.1692 37.5407 53.7305 33.2004 56.2499C33.1649 56.2685 33.1282 56.2831 33.0912 56.2978L33.0911 56.2978C33.0527 56.313 33.014 56.3284 32.9759 56.3486C32.8517 56.4358 32.7285 56.5187 32.636 56.576L27.9585 59.2919C26.2786 60.2638 25.9485 60.9274 25.6544 61.8588L24.7837 77.8732C24.8172 79.1527 25.8878 80.5089 27.2057 79.8092L40.6336 72.0193C42.4138 70.9882 43.8523 68.4583 43.8409 66.3962V64.7157C42.3284 64.0451 41.2657 62.5347 41.2657 60.7723C41.2657 59.0081 42.3284 57.4959 43.8409 56.8271V43.3357C43.8409 42.3029 43.4562 41.16 42.8672 40.1386C42.2747 39.1226 41.4647 38.2334 40.572 37.7188L29.066 31.0912C28.4013 31.5124 27.6177 31.7671 26.7699 31.7671C24.3893 31.7671 22.4595 29.8328 22.4595 27.4509C22.4595 27.4244 22.4632 27.398 22.467 27.3718L22.467 27.3718C22.4707 27.3458 22.4744 27.3199 22.4744 27.294L20.6036 26.2163C19.7135 25.7017 18.5434 25.4461 17.3734 25.4461C16.1937 25.4461 15.0148 25.7061 14.1221 26.2234ZM64.3841 29.4563C63.2792 29.4563 62.382 28.5575 62.382 27.4507C62.382 26.3457 63.2792 25.4459 64.3841 25.4459C65.4907 25.4459 66.387 26.3457 66.387 27.4507C66.387 28.5575 65.4907 29.4563 64.3841 29.4563ZM24.7669 27.4507C24.7669 28.5575 25.664 29.4563 26.7698 29.4563C27.8773 29.4563 28.7736 28.5575 28.7736 27.4507C28.7736 26.3457 27.8773 25.4459 26.7698 25.4459C25.664 25.4459 24.7669 26.3457 24.7669 27.4507ZM43.575 60.7722C43.575 60.4232 43.6859 60.1131 43.8409 59.8275C44.1816 59.2036 44.8181 58.7666 45.5779 58.7666C46.3368 58.7666 46.9742 59.2036 47.3141 59.8275C47.469 60.1131 47.5808 60.4232 47.5808 60.7722C47.5808 61.1185 47.469 61.4305 47.3141 61.7151C46.9742 62.339 46.3368 62.777 45.5779 62.777C44.8181 62.777 44.1816 62.339 43.8409 61.7151C43.6859 61.4305 43.575 61.1185 43.575 60.7722Z" fill="url(#paint0_linear_202_76)"/>
<path d="M321.487 54.405V27.8734H334.408V30.1302H323.945V39.8623H333.631V42.083H323.945V52.1659H335V54.405H321.487Z" fill="#FF0101"/>
<path d="M285.92 50.5195C286.364 50.8526 286.854 51.1513 287.389 51.4174C287.925 51.6818 288.473 51.9039 289.035 52.0827C289.596 52.2616 290.159 52.3973 290.726 52.4899C291.293 52.5824 291.835 52.6291 292.353 52.6291C294.361 52.6291 295.865 52.2405 296.863 51.4632C297.861 50.686 298.36 49.5695 298.36 48.1146C298.36 47.4114 298.243 46.7972 298.009 46.2738C297.775 45.7486 297.412 45.2586 296.919 44.8021C296.426 44.3466 295.803 43.8927 295.051 43.4424C294.3 42.9921 293.413 42.4837 292.39 41.9162C291.256 41.2993 290.285 40.7159 289.478 40.1678C288.671 39.6188 288.012 39.0575 287.5 38.4838C286.989 37.9102 286.613 37.2907 286.373 36.6245C286.132 35.9583 286.011 35.1995 286.011 34.3483C286.011 33.2758 286.24 32.3136 286.696 31.4623C287.152 30.611 287.769 29.8867 288.544 29.2883C289.321 28.69 290.23 28.2309 291.271 27.9101C292.313 27.5894 293.424 27.429 294.608 27.429C296.69 27.429 298.434 27.7189 299.839 28.2987V31.0182C298.274 30.1184 296.437 29.6673 294.331 29.6673C293.542 29.6673 292.798 29.7633 292.103 29.9545C291.407 30.1458 290.796 30.426 290.273 30.7961C289.75 31.1662 289.337 31.6262 289.035 32.1752C288.732 32.7233 288.581 33.3622 288.581 34.0892C288.581 34.781 288.683 35.3749 288.887 35.8754C289.09 36.3742 289.417 36.8465 289.866 37.2907C290.316 37.7348 290.907 38.1754 291.641 38.6134C292.374 39.0513 293.271 39.5545 294.331 40.1211C295.44 40.7133 296.407 41.2896 297.233 41.8509C298.058 42.4123 298.745 42.9983 299.293 43.609C299.842 44.2197 300.252 44.8673 300.523 45.5512C300.794 46.2368 300.93 46.9981 300.93 47.837C300.93 48.9958 300.714 50.0172 300.282 50.8993C299.851 51.7805 299.247 52.5119 298.472 53.0909C297.694 53.6716 296.771 54.1087 295.698 54.4047C294.627 54.7008 293.45 54.8489 292.168 54.8489C291.749 54.8489 291.25 54.8154 290.671 54.7475C290.091 54.6797 289.506 54.5801 288.914 54.4514C288.323 54.321 287.759 54.1677 287.223 53.9888C286.687 53.8099 286.253 53.6161 285.92 53.4054V50.5195Z" fill="#FF0101"/>
<path d="M264.992 54.4046H262.534V27.873H264.992V54.4046Z" fill="#FF0101"/>
<path d="M228.095 30.13V40.6209H232.495C233.382 40.6209 234.196 40.4913 234.935 40.2323C235.674 39.9732 236.305 39.6031 236.829 39.1219C237.353 38.6408 237.76 38.0609 238.049 37.3824C238.339 36.7048 238.484 35.9399 238.484 35.0886C238.484 33.5465 237.987 32.3348 236.995 31.4527C236.003 30.5706 234.571 30.13 232.698 30.13H228.095ZM240.072 54.4048L236.08 46.8C235.686 46.0483 235.304 45.4191 234.935 44.9133C234.566 44.4075 234.183 44.0039 233.788 43.7007C233.395 43.3993 232.972 43.1826 232.522 43.0539C232.072 42.9244 231.57 42.8592 231.016 42.8592H228.095V54.4048H225.636V27.8723H233.27C234.27 27.8723 235.233 28.0204 236.163 28.3165C237.094 28.6126 237.922 29.0505 238.65 29.6304C239.377 30.2102 239.96 30.9381 240.397 31.814C240.834 32.6899 241.053 33.7077 241.053 34.8665C241.053 35.8042 240.911 36.6677 240.628 37.4564C240.344 38.246 239.94 38.9466 239.417 39.5564C238.894 40.1679 238.259 40.6861 237.513 41.1108C236.767 41.5365 235.927 41.8546 234.99 42.0634V42.1374C235.347 42.2855 235.674 42.4776 235.97 42.7111C236.266 42.9455 236.552 43.2293 236.829 43.5624C237.106 43.8955 237.381 44.2779 237.651 44.7097C237.922 45.1415 238.206 45.635 238.502 46.1902L242.957 54.4048H240.072Z" fill="#FF0101"/>
<path d="M199.011 30.1942V54.469H196.552V30.1942H188.918V27.9365H206.663V30.1942H199.011Z" fill="black"/>
<path d="M157.252 54.4691V27.9375H170.173V30.1943H159.71V39.9264H169.396V42.1471H159.71V52.2299H170.765V54.4691H157.252Z" fill="black"/>
<path d="M132.757 54.4691L118.043 33.1737C117.858 32.9022 117.677 32.6247 117.498 32.3409C117.32 32.0572 117.174 31.7796 117.063 31.5082H116.971C116.996 31.7302 117.018 32.0387 117.036 32.4334C117.055 32.8282 117.063 33.3208 117.063 33.913V54.4691H114.605V27.9375H117.322L131.796 48.9739C132.018 49.307 132.219 49.6189 132.397 49.9079C132.575 50.1979 132.739 50.4666 132.887 50.7134H132.979C132.93 50.3063 132.893 49.8498 132.868 49.344C132.844 48.8381 132.831 48.2777 132.831 47.66V27.9375H135.308V54.4691H132.757Z" fill="black"/>
<defs>
<linearGradient id="paint0_linear_202_76" x1="15.7425" y1="20.9524" x2="67.6013" y2="51.6864" gradientUnits="userSpaceOnUse">
<stop stop-color="#FF0101"/>
<stop offset="1" stop-color="#950000"/>
</linearGradient>
</defs>
</svg>
