<?xml version="1.0" encoding="UTF-8" standalone="no"?>
<!DOCTYPE svg PUBLIC "-//W3C//DTD SVG 1.1//EN" "http://www.w3.org/Graphics/SVG/1.1/DTD/svg11.dtd">
<svg width="100%" height="100%" viewBox="0 0 50 32" version="1.1" xmlns="http://www.w3.org/2000/svg" xmlns:xlink="http://www.w3.org/1999/xlink" xml:space="preserve" xmlns:serif="http://www.serif.com/" style="fill-rule:evenodd;clip-rule:evenodd;stroke-linejoin:round;stroke-miterlimit:2;">
    <g transform="matrix(1,0,0,1,0,-18.2659)">
        <path d="M45.569,18.266C47.573,18.266 49.198,19.891 49.198,21.895L49.198,35.403C49.198,43.198 42.879,49.517 35.084,49.517C27.289,49.517 20.97,43.198 20.97,35.403L20.97,32.382C20.97,28.596 17.9,25.526 14.114,25.526C10.328,25.526 7.258,28.596 7.258,32.382L7.258,45.89C7.258,47.894 5.634,49.519 3.629,49.519C1.625,49.519 0,47.894 0,45.89L0,32.382C0,24.587 6.319,18.268 14.114,18.268C21.909,18.268 28.228,24.587 28.228,32.382L28.228,35.403C28.228,39.189 31.298,42.259 35.084,42.259C38.87,42.259 41.94,39.189 41.94,35.403L41.94,21.895C41.94,19.891 43.565,18.266 45.569,18.266Z" style="fill:url(#_Radial1);"/>
    </g>
    <defs>
        <radialGradient id="_Radial1" cx="0" cy="0" r="1" gradientUnits="userSpaceOnUse" gradientTransform="matrix(-54.8023,27.607,-27.607,-54.8023,50.5438,18.2659)"><stop offset="0" style="stop-color:rgb(17,184,171);stop-opacity:1"/><stop offset="0.5" style="stop-color:rgb(121,74,255);stop-opacity:1"/><stop offset="1" style="stop-color:rgb(247,93,105);stop-opacity:1"/></radialGradient>
    </defs>
</svg>
