<svg width="148" height="66" viewBox="0 0 148 66" fill="none" xmlns="http://www.w3.org/2000/svg">
<path d="M148 33.7399C148 24.8056 141.371 17.4387 133.049 17.4387C124.728 17.4387 118.099 24.8056 118.099 33.7399C118.099 42.6743 124.728 50.0385 133.049 50.0385C136.242 50.0295 139.618 49.1445 141.828 46.9353C142.501 46.2622 143.158 45.6912 143.373 44.8056C143.589 43.9199 143.447 42.9848 142.979 42.2027C142.512 41.4206 141.755 40.8544 140.874 40.6265C139.805 40.3504 138.508 40.5714 137.717 41.3658C136.412 42.4773 134.762 43.1005 133.049 43.1289C129.966 43.1289 126.803 40.8901 125.554 37.1947H145.091C145.893 37.0633 146.623 36.6035 147.154 35.9874C147.685 35.3713 147.983 34.5879 147.995 33.7743L148 33.7399ZM125.56 30.2851C126.808 26.5845 129.971 24.3509 133.055 24.3509C136.138 24.3509 139.301 26.5898 140.55 30.2851H125.56Z" fill="white"/>
<path d="M110.292 21.8478C108.227 19.9211 105.659 18.6194 102.884 18.0936C100.109 17.5679 97.2422 17.8395 94.6157 18.8772C91.9891 19.9148 89.7105 21.6759 88.0443 23.956C86.3781 26.2362 85.3926 28.9421 85.2019 31.7598V36.3526C85.3723 38.9381 86.2125 41.4348 87.6402 43.5972C89.0678 45.7595 91.0336 47.5131 93.3443 48.6855C95.655 49.8579 98.231 50.4088 100.819 50.2839C103.407 50.1591 105.918 49.3628 108.105 47.9734V50.8337C108.144 52.904 107.379 54.9087 105.971 56.4269C104.563 57.945 102.621 58.8585 100.554 58.9754C98.4863 59.0923 96.454 58.4035 94.8837 57.0538C93.3134 55.7041 92.3272 53.7984 92.1321 51.7369C92.1222 51.5209 92.0749 51.3082 91.9922 51.1084C91.7459 50.3385 91.2374 49.6794 90.5553 49.2457C89.8731 48.8121 89.0605 48.6313 88.2589 48.735C87.4573 48.8386 86.7173 49.2201 86.168 49.813C85.6186 50.4059 85.2945 51.1727 85.2521 51.9799C85.2493 52.0309 85.2493 52.0821 85.2521 52.1331C85.2521 52.1331 85.2521 52.1569 85.2521 52.1701C85.2521 52.1833 85.2521 52.1859 85.2521 52.1965C85.2521 52.281 85.2521 52.3761 85.2521 52.4791C85.2521 52.5108 85.2521 52.5425 85.2521 52.5742C85.2521 52.6059 85.2521 52.6481 85.2521 52.6877C85.7172 56.3711 87.5376 59.7491 90.3584 62.1629C93.1792 64.5767 96.798 65.8532 100.509 65.7434C104.22 65.6335 107.757 64.1453 110.43 61.5688C113.103 58.9924 114.721 55.5127 114.967 51.8083V31.7598C114.718 27.9835 113.048 24.4416 110.292 21.8478ZM108.103 35.3807C108.122 36.444 107.929 37.5005 107.536 38.4885C107.142 39.4765 106.556 40.3761 105.811 41.1349C105.065 41.8937 104.177 42.4965 103.196 42.9079C102.215 43.3193 101.162 43.5312 100.099 43.5312C99.0355 43.5312 97.9827 43.3193 97.002 42.9079C96.0213 42.4965 95.1325 41.8937 94.3873 41.1349C93.6422 40.3761 93.0557 39.4765 92.6622 38.4885C92.2686 37.5005 92.0759 36.444 92.0952 35.3807V32.7396C92.0759 31.6763 92.2686 30.6198 92.6622 29.6318C93.0557 28.6438 93.6422 27.7442 94.3873 26.9854C95.1325 26.2266 96.0213 25.6239 97.002 25.2124C97.9827 24.801 99.0355 24.5891 100.099 24.5891C101.162 24.5891 102.215 24.801 103.196 25.2124C104.177 25.6239 105.065 26.2266 105.811 26.9854C106.556 27.7442 107.142 28.6438 107.536 29.6318C107.929 30.6198 108.122 31.6763 108.103 32.7396V35.3807Z" fill="white"/>
<path d="M82.1005 2.70233C81.9333 1.93656 81.4199 1.25105 80.81 0.75952C80.2001 0.267994 79.4408 0 78.6579 0C77.875 0 77.1156 0.267994 76.5058 0.75952C75.8959 1.25105 75.3693 1.93656 75.202 2.70233V20.1481C73.0151 18.758 70.5047 17.9615 67.9173 17.8367C65.3299 17.7119 62.7546 18.2632 60.4444 19.4364C58.1341 20.6096 56.1685 22.3643 54.7405 24.5282C53.3125 26.6921 52.4713 29.1907 52.2996 31.7786V36.37C52.5561 40.1517 54.2374 43.6948 57.0036 46.2827C59.7697 48.8705 63.4142 50.31 67.2 50.31C70.9858 50.31 74.6303 48.8705 77.3965 46.2827C80.1627 43.6948 81.844 40.1517 82.1005 36.37V2.70233ZM67.2027 43.4091C66.1506 43.4088 65.1089 43.2008 64.1372 42.797C63.1655 42.3933 62.2828 41.8017 61.5396 41.0561C60.7964 40.3105 60.2073 39.4256 59.8059 38.4519C59.4046 37.4782 59.1989 36.4348 59.2007 35.3814V32.7328C59.2388 30.6328 60.0987 28.6317 61.5955 27.1601C63.0923 25.6884 65.1062 24.8639 67.204 24.8639C69.3018 24.8639 71.3157 25.6884 72.8125 27.1601C74.3093 28.6317 75.1692 30.6328 75.2073 32.7328V35.3867C75.2084 36.4399 75.0021 37.4829 74.6003 38.4562C74.1985 39.4294 73.609 40.3139 72.8656 41.0589C72.1222 41.804 71.2394 42.395 70.2678 42.7983C69.2961 43.2016 68.2545 43.4091 67.2027 43.4091Z" fill="white"/>
<path fill-rule="evenodd" clip-rule="evenodd" d="M45.5689 18.2659C47.5732 18.2659 49.1981 19.8907 49.1981 21.8951V35.4028C49.1981 43.1978 42.879 49.5169 35.0839 49.5169C27.2889 49.5169 20.9698 43.1978 20.9698 35.4028V32.382C20.9698 28.5957 17.9004 25.5263 14.1141 25.5263C10.3278 25.5263 7.25842 28.5957 7.25842 32.382V45.8897C7.25842 47.894 5.63357 49.5189 3.62921 49.5189C1.62485 49.5189 0 47.894 0 45.8897V32.382C0 24.587 6.31911 18.2679 14.1141 18.2679C21.9091 18.2679 28.2282 24.587 28.2282 32.382V35.4028C28.2282 39.1891 31.2976 42.2585 35.0839 42.2585C38.8702 42.2585 41.9396 39.1891 41.9396 35.4028V21.8951C41.9396 19.8907 43.5645 18.2659 45.5689 18.2659Z" fill="url(#paint0_radial_65_970)"/>
<defs>
<radialGradient id="paint0_radial_65_970" cx="0" cy="0" r="1" gradientUnits="userSpaceOnUse" gradientTransform="translate(50.5438 18.2659) rotate(153.263) scale(61.3632)">
<stop stop-color="#11B8AB"/>
<stop offset="0.496528" stop-color="#794AFF"/>
<stop offset="1" stop-color="#F75D69"/>
</radialGradient>
</defs>
</svg>
