<?xml version="1.0" encoding="UTF-8" standalone="no"?>
<!DOCTYPE svg PUBLIC "-//W3C//DTD SVG 1.1//EN" "http://www.w3.org/Graphics/SVG/1.1/DTD/svg11.dtd">
<svg width="100%" height="100%" viewBox="0 0 31 31" version="1.1" xmlns="http://www.w3.org/2000/svg" xmlns:xlink="http://www.w3.org/1999/xlink" xml:space="preserve" xmlns:serif="http://www.serif.com/" style="fill-rule:evenodd;clip-rule:evenodd;stroke-linejoin:round;stroke-miterlimit:2;">
    <g transform="matrix(1,0,0,1,-321,83)">
        <g id="Path_7" transform="matrix(1,0,0,1,321,-83)">
            <path d="M6.422,7.537L1.116,7.537C0.504,7.537 0.001,7.034 0,6.422L0,1.116C-0,0.504 0.504,0 1.116,0L6.422,0C7.034,0.001 7.537,0.504 7.537,1.116L7.537,6.422C7.536,7.033 7.033,7.536 6.422,7.537" style="fill:white;fill-rule:nonzero;"/>
        </g>
    </g>
    <g transform="matrix(1,0,0,1,-321,83)">
        <g id="Path_8" transform="matrix(1,0,0,1,321,-235.845)">
            <path d="M6.422,171.572L1.116,171.572C0.504,171.572 0.001,171.069 0,170.457L0,165.152C-0,164.54 0.504,164.036 1.116,164.036L6.422,164.036C7.034,164.036 7.538,164.54 7.538,165.152L7.538,170.457C7.538,171.069 7.034,171.573 6.422,171.573" style="fill:white;fill-rule:nonzero;"/>
        </g>
    </g>
    <g transform="matrix(1,0,0,1,-321,83)">
        <g id="Path_9" transform="matrix(1,0,0,1,166.664,-235.845)">
            <path d="M172.058,171.572L166.753,171.572C166.141,171.572 165.637,171.068 165.637,170.456L165.637,165.151C165.637,164.539 166.141,164.035 166.753,164.035L172.058,164.035C172.67,164.035 173.174,164.539 173.174,165.151L173.174,170.456C173.174,171.068 172.67,171.572 172.058,171.572" style="fill:rgb(95,210,135);fill-rule:nonzero;"/>
        </g>
    </g>
    <g transform="matrix(1,0,0,1,-321,83)">
        <g id="Path_10" transform="matrix(1,0,0,1,12.326,-235.845)">
            <path d="M337.691,171.572L332.386,171.572C331.774,171.571 331.271,171.068 331.27,170.456L331.27,165.151C331.271,164.539 331.774,164.036 332.386,164.035L337.691,164.035C338.303,164.036 338.806,164.539 338.807,165.151L338.807,170.456C338.806,171.068 338.303,171.571 337.691,171.572" style="fill:white;fill-rule:nonzero;"/>
        </g>
    </g>
    <g transform="matrix(1,0,0,1,-321,83)">
        <g id="Path_11" transform="matrix(1,0,0,1,12.326,-389.803)">
            <path d="M337.691,336.8L332.386,336.8C331.774,336.8 331.27,336.296 331.27,335.684L331.27,330.379C331.271,329.767 331.774,329.264 332.386,329.263L337.691,329.263C338.303,329.264 338.806,329.767 338.807,330.379L338.807,335.687C338.807,336.299 338.303,336.803 337.691,336.803" style="fill:white;fill-rule:nonzero;"/>
        </g>
    </g>
    <g transform="matrix(1,0,0,1,-321,83)">
        <g id="Path_12" transform="matrix(1,0,0,1,166.663,-83)">
            <path d="M183.357,7.537L166.757,7.537C166.145,7.537 165.641,7.033 165.641,6.421L165.641,1.116C165.641,0.505 166.142,0.002 166.753,0L183.353,0C183.965,-0 184.469,0.504 184.469,1.116L184.469,6.422C184.469,7.034 183.965,7.538 183.353,7.538" style="fill:white;fill-rule:nonzero;"/>
        </g>
    </g>
    <g transform="matrix(1,0,0,1,-321,83)">
        <g id="Path_13" transform="matrix(1,0,0,1,321,-389.803)">
            <path d="M17.722,336.8L1.116,336.8C0.506,336.8 0.004,336.301 0,335.691L0,330.386C0,329.774 0.504,329.27 1.116,329.27L17.722,329.27C18.334,329.27 18.838,329.774 18.838,330.386L18.838,335.691C18.838,336.303 18.334,336.807 17.722,336.807" style="fill:white;fill-rule:nonzero;"/>
        </g>
    </g>
</svg>
