<svg width="157" height="155" viewBox="0 0 157 155" fill="none" xmlns="http://www.w3.org/2000/svg">
<path d="M157 0.73877H60.9949V38.6355H157V0.73877Z" fill="#F0F0F0"/>
<path d="M96.3655 116.957H0.360352V154.854H96.3655V116.957Z" fill="#F0F0F0"/>
<path d="M38.2571 0.73877H0.360352V38.6355H38.2571V0.73877Z" fill="#F0F0F0"/>
<path d="M156.999 116.957H119.102V154.854H156.999V116.957Z" fill="#F0F0F0"/>
<path d="M78.1982 99.268C90.0584 99.268 99.673 89.6534 99.673 77.7932C99.673 65.933 90.0584 56.3184 78.1982 56.3184C66.338 56.3184 56.7234 65.933 56.7234 77.7932C56.7234 89.6534 66.338 99.268 78.1982 99.268Z" fill="#F4A72B"/>
<path d="M38.2571 58.8457H0.360352V96.7425H38.2571V58.8457Z" fill="#F0F0F0"/>
<path d="M156.999 58.8457H119.102V96.7425H156.999V58.8457Z" fill="#F0F0F0"/>
</svg>
