<svg xmlns="http://www.w3.org/2000/svg" width="130.978" height="30.003" viewBox="0 0 130.978 30.003">
  <g id="Group_130" data-name="Group 130" transform="translate(-321 83)">
    <path id="Path_1" data-name="Path 1" d="M573.109,138.868h4.177a2.741,2.741,0,0,0,.633.951,3.424,3.424,0,0,0,2.534.922q2.448,0,2.448-1.44a.784.784,0,0,0-.115-.417,1.058,1.058,0,0,0-.4-.346q-.29-.158-.547-.274a5.183,5.183,0,0,0-.763-.245q-.5-.13-.807-.187t-.95-.2q-.649-.144-.936-.2-4.552-.979-4.552-4.464a3.909,3.909,0,0,1,1.656-3.154,7.124,7.124,0,0,1,4.536-1.31,7,7,0,0,1,5.79,2.391,5.617,5.617,0,0,1,1.123,2.362H582.9a2.246,2.246,0,0,0-.518-.721,3.652,3.652,0,0,0-2.362-.72,2.773,2.773,0,0,0-1.526.331.968.968,0,0,0-.49.821.787.787,0,0,0,.072.331.754.754,0,0,0,.245.291,3.56,3.56,0,0,0,.346.23,2.5,2.5,0,0,0,.49.2q.317.1.562.187a5.4,5.4,0,0,0,.648.172q.4.086.691.144t.749.158l.749.159q4.522,1.008,4.523,4.464a4.164,4.164,0,0,1-1.786,3.341,7.6,7.6,0,0,1-4.842,1.411q-4.091,0-6.049-2.592a7.818,7.818,0,0,1-1.3-2.592" transform="translate(-213.012 -202.733)" fill="#fff"/>
    <path id="Path_2" data-name="Path 2" d="M809.734,141.792a7.788,7.788,0,0,1,0-11.032,7.7,7.7,0,0,1,5.631-2.261,7.466,7.466,0,0,1,5.588,2.247,7.621,7.621,0,0,1,2.19,5.531v.864H811.619a4.2,4.2,0,0,0,1.3,2.448,3.458,3.458,0,0,0,2.448,1.008,4.1,4.1,0,0,0,2.62-.864,2.981,2.981,0,0,0,.692-.864H823a7.78,7.78,0,0,1-1.44,2.593,7.872,7.872,0,0,1-6.193,2.592,7.7,7.7,0,0,1-5.631-2.261m2.034-7.1h7.057a3.355,3.355,0,0,0-1.162-1.945,3.426,3.426,0,0,0-2.289-.792,3.521,3.521,0,0,0-2.3.775,3.885,3.885,0,0,0-1.3,1.959" transform="translate(-431.361 -202.734)" fill="#fff"/>
    <path id="Path_3" data-name="Path 3" d="M1081.89,143.622v-14.69h4.032v2.016h.144a4.165,4.165,0,0,1,1.065-1.21,6.1,6.1,0,0,1,7.791.346,6.425,6.425,0,0,1,1.513,4.609v8.929H1092.4v-8.353a3.486,3.486,0,0,0-.792-2.463,2.905,2.905,0,0,0-2.228-.849,3.206,3.206,0,0,0-2.448,1.094,3.961,3.961,0,0,0-1.008,2.794v7.777Z" transform="translate(-687.082 -202.734)" fill="#fff"/>
    <path id="Path_4" data-name="Path 4" d="M1330.99,95.014V91.558h1.872V88.389h4.032v3.169h4.148v3.456h-4.148v6.338a1.438,1.438,0,0,0,1.438,1.438h2.882v3.456H1337a4.139,4.139,0,0,1-4.139-4.139V95.014Z" transform="translate(-919.193 -165.36)" fill="#fff"/>
    <path id="Path_5" data-name="Path 5" d="M1523.1,145.589V130.9h4.032v2.161h.144a3.356,3.356,0,0,1,.775-1.21,3.928,3.928,0,0,1,2.966-1.239h1.729V134.5h-2.161a3.514,3.514,0,0,0-2.549.878,3.23,3.23,0,0,0-.907,2.434v7.777Z" transform="translate(-1098.199 -204.7)" fill="#fff"/>
    <path id="Path_6" data-name="Path 6" d="M1693.937,141.909a9.128,9.128,0,0,1,0-11.262,6.249,6.249,0,0,1,4.825-2.146,5.714,5.714,0,0,1,3.486,1.152,7.051,7.051,0,0,1,1.123,1.152h.144v-1.872h4.032v14.69h-4.032v-1.872h-.144a7.033,7.033,0,0,1-1.123,1.152,5.714,5.714,0,0,1-3.486,1.152,6.247,6.247,0,0,1-4.825-2.146m3.24-8.8a5.483,5.483,0,0,0,0,6.337,3.287,3.287,0,0,0,2.592,1.153,3.486,3.486,0,0,0,2.711-1.138,5.4,5.4,0,0,0,0-6.365,3.492,3.492,0,0,0-2.712-1.138,3.293,3.293,0,0,0-2.593,1.152" transform="translate(-1255.57 -202.735)" fill="#fff"/>
    <path id="Path_7" data-name="Path 7" d="M6.422,7.537H1.116A1.116,1.116,0,0,1,0,6.422V1.116A1.116,1.116,0,0,1,1.116,0H6.422A1.116,1.116,0,0,1,7.537,1.116V6.422A1.116,1.116,0,0,1,6.422,7.537" transform="translate(321 -83)" fill="#fff"/>
    <path id="Path_8" data-name="Path 8" d="M6.422,171.572H1.116A1.116,1.116,0,0,1,0,170.457v-5.305a1.116,1.116,0,0,1,1.116-1.116H6.422a1.116,1.116,0,0,1,1.116,1.116v5.305a1.116,1.116,0,0,1-1.116,1.116" transform="translate(321 -235.845)" fill="#fff"/>
    <path id="Path_9" data-name="Path 9" d="M172.058,171.572h-5.305a1.116,1.116,0,0,1-1.116-1.116v-5.305a1.116,1.116,0,0,1,1.116-1.116h5.305a1.116,1.116,0,0,1,1.116,1.116v5.305a1.116,1.116,0,0,1-1.116,1.116" transform="translate(166.664 -235.845)" fill="#5fd287"/>
    <path id="Path_10" data-name="Path 10" d="M337.691,171.572h-5.305a1.117,1.117,0,0,1-1.116-1.116v-5.305a1.117,1.117,0,0,1,1.116-1.116h5.305a1.117,1.117,0,0,1,1.116,1.116v5.305a1.117,1.117,0,0,1-1.116,1.116" transform="translate(12.326 -235.845)" fill="#fff"/>
    <path id="Path_11" data-name="Path 11" d="M337.691,336.8h-5.305a1.116,1.116,0,0,1-1.116-1.116v-5.305a1.117,1.117,0,0,1,1.116-1.116h5.305a1.117,1.117,0,0,1,1.116,1.116v5.308a1.116,1.116,0,0,1-1.116,1.116" transform="translate(12.326 -389.803)" fill="#fff"/>
    <path id="Path_12" data-name="Path 12" d="M183.357,7.537h-16.6a1.116,1.116,0,0,1-1.116-1.116V1.116A1.116,1.116,0,0,1,166.753,0h16.6a1.116,1.116,0,0,1,1.116,1.116V6.422a1.116,1.116,0,0,1-1.116,1.116" transform="translate(166.663 -83)" fill="#fff"/>
    <path id="Path_13" data-name="Path 13" d="M17.722,336.8H1.116A1.116,1.116,0,0,1,0,335.691v-5.305a1.116,1.116,0,0,1,1.116-1.116H17.722a1.116,1.116,0,0,1,1.116,1.116v5.305a1.116,1.116,0,0,1-1.116,1.116" transform="translate(321 -389.803)" fill="#fff"/>
  </g>
</svg>
